<svg width="670" height="917" viewBox="0 0 670 917" fill="none" xmlns="http://www.w3.org/2000/svg">
<path opacity="0.27" d="M245.185 109.417L38.8609 678C35.8524 686.277 36.1467 695.394 39.683 703.46C43.2192 711.526 49.7257 717.92 57.8517 721.315C105.704 741.398 208.37 776.324 343.694 776.324C479.018 776.324 581.657 741.398 629.546 721.315C637.67 717.918 644.175 711.523 647.709 703.458C651.244 695.392 651.537 686.276 648.528 678L442.204 109.417H245.185Z" fill="#EBC8BC"/>
<path d="M126.019 175.37C136.63 175.37 145.232 166.768 145.232 156.157C145.232 145.546 136.63 136.944 126.019 136.944C115.408 136.944 106.806 145.546 106.806 156.157C106.806 166.768 115.408 175.37 126.019 175.37Z" fill="#696FA3"/>
<path d="M561.37 175.37C571.981 175.37 580.583 166.768 580.583 156.157C580.583 145.546 571.981 136.944 561.37 136.944C550.759 136.944 542.157 145.546 542.157 156.157C542.157 166.768 550.759 175.37 561.37 175.37Z" fill="#696FA3"/>
<path d="M343.694 206.926C354.305 206.926 362.907 198.324 362.907 187.713C362.907 177.102 354.305 168.5 343.694 168.5C333.083 168.5 324.481 177.102 324.481 187.713C324.481 198.324 333.083 206.926 343.694 206.926Z" fill="#696FA3"/>
<path d="M601.037 118.907C601.037 154.815 496.741 183.917 342.611 183.917C188.481 183.917 86.3979 154.815 86.3979 118.907C86.3979 83 188.426 53.9073 342.565 53.9073C496.704 53.9073 601.037 83.0092 601.037 118.907Z" fill="#888DB7"/>
<g style="mix-blend-mode:soft-light" opacity="0.42">
<path d="M601.037 95.1852C601.037 131.083 496.741 160.194 342.611 160.194C188.481 160.194 86.4443 131.083 86.4443 95.1852C86.4443 59.287 188.472 30.1759 342.611 30.1759C496.75 30.1759 601.037 59.287 601.037 95.1852Z" fill="white"/>
</g>
<path d="M343.954 117.009C387.991 117.009 429.38 111.713 465.407 102.398C457.565 44.8333 403.963 0.296265 339 0.296265C275.018 0.296265 222.056 43.5092 212.981 99.824C251.167 110.731 296 117.009 343.954 117.009Z" fill="#888DB7"/>
<g style="mix-blend-mode:soft-light" opacity="0.42">
<path d="M410.881 54.8498C413.798 43.2868 394.675 28.4917 368.167 21.804C341.66 15.1163 317.806 19.0684 314.889 30.6313C311.972 42.1943 331.095 56.9894 357.603 63.6771C384.11 70.3648 407.964 66.4127 410.881 54.8498Z" fill="white"/>
</g>
<path d="M566.117 242.378C563.674 236.31 556.776 233.372 550.708 235.815C544.641 238.257 541.703 245.156 544.146 251.223L595.062 377.692C597.505 383.759 604.404 386.697 610.471 384.254C616.538 381.812 619.477 374.913 617.034 368.846L566.117 242.378Z" fill="#EBC8BC"/>
<path d="M53.6581 526.118C56.1515 520.072 53.2711 513.149 47.2246 510.655C41.1781 508.162 34.255 511.042 31.7616 517.089L5.28011 581.306C2.78667 587.352 5.66703 594.275 11.7136 596.769C17.7601 599.262 24.6831 596.382 27.1766 590.335L53.6581 526.118Z" fill="#EBC8BC"/>
<path d="M181.683 443L211.816 417.89L206.208 411.161L168 443H181.683Z" fill="#3F4367"/>
<path d="M298.816 359.767C308.033 350.55 320.336 344.474 329.233 346.68C347.577 321.307 352.109 295.22 326.997 276.952C319.153 271.249 305.341 274.107 289.448 282.958C285.08 291.974 280.182 302.862 276.912 311.58C276.912 306.91 276.912 299.984 276.912 290.892C258.29 303.992 238.325 323.751 222.382 346.607C219.648 356.497 218.691 366.548 219.963 372.913C217.164 371.98 213.973 368.66 211.055 364.652C193.679 379.48 198.06 399.193 191.577 427.703C213.392 423.287 244.057 429.858 257.103 407.527C255.443 407.219 253.743 406.689 252.819 405.764C257.149 403.6 262.546 402.505 267.433 401.423C286.997 389.242 306.022 373.95 320.268 357.837C311.958 353.196 301.527 361.123 298.816 359.767Z" fill="#C8CADD"/>
<path d="M191.577 427.703C198.06 399.193 193.679 379.48 211.055 364.645C213.973 368.653 217.164 371.978 219.963 372.909C218.691 366.548 219.648 356.493 222.382 346.603C238.325 323.747 258.29 303.992 276.912 290.887C276.912 299.982 276.912 306.908 276.912 311.577C280.182 302.862 285.08 291.972 289.443 282.961C305.336 274.109 319.151 271.251 326.992 276.955C320.719 307.199 235.296 394.812 191.577 427.703Z" fill="#E7E8F1"/>
<path d="M414.927 307.207L420.945 329.085L425.83 327.741L418.2 300L414.927 307.207Z" fill="#3F4367"/>
<path d="M430.749 388.812C433.399 395.872 433.656 403.805 430.366 407.964C439.342 423.695 451.999 432.322 467.627 423.465C472.508 420.698 474.306 412.739 473.446 402.251C469.742 397.794 465.178 392.61 461.369 388.802C463.829 389.919 467.477 391.576 472.266 393.75C469.82 380.808 464.188 365.566 455.963 351.701C451.408 347.896 446.343 344.987 442.686 344.135C443.847 342.884 446.359 341.997 449.168 341.419C445.514 328.72 434.083 326.312 420.618 316.078C417.725 328.624 406.929 343.204 415.57 355.417C416.13 354.616 416.816 353.848 417.524 353.582C417.628 356.381 416.914 359.485 416.315 362.318C418.051 375.536 421.555 389.215 426.634 400.573C431.066 397.306 429.386 389.916 430.749 388.812Z" fill="#C8CADD"/>
<path d="M420.618 316.078C434.083 326.312 445.514 328.72 449.172 341.421C446.363 341.999 443.848 342.884 442.688 344.136C446.343 344.987 451.411 347.897 455.966 351.702C464.191 365.567 469.82 380.808 472.268 393.752C467.478 391.576 463.83 389.919 461.37 388.802C465.179 392.61 469.743 397.794 473.446 402.248C474.306 412.736 472.507 420.696 467.628 423.462C453.198 412.923 427.484 346.972 420.618 316.078Z" fill="#E7E8F1"/>
<path d="M666.994 854.733L612.697 802.492L601.031 814.616L669.878 880.859L666.994 854.733Z" fill="#3F4367"/>
<path d="M483.377 648.627C463.835 632.971 449.64 610.761 451.976 593.307C399.662 563.63 348.897 560.477 319.311 612.277C310.074 628.456 318.444 654.226 338.694 682.706C356.829 689.145 378.651 696.201 395.986 700.607C387.069 701.592 373.845 703.052 356.485 704.968C385.424 737.764 427.361 771.719 474.363 797.343C493.822 800.478 513.216 800.186 525.101 796.415C523.91 801.956 518.242 808.75 511.204 815.165C543.181 845.217 579.897 832.697 635.699 839.066C622.669 798.342 628.751 738.406 583.363 718.204C583.124 721.439 582.47 724.797 580.9 726.756C575.855 718.944 572.626 708.87 569.53 699.768C542.148 664.98 508.937 631.877 475.17 608.073C468.06 624.919 485.394 643.163 483.377 648.627Z" fill="#C8CADD"/>
<path d="M635.699 839.066C579.897 832.697 543.18 845.217 511.191 815.167C518.23 808.751 523.905 801.957 525.093 796.416C513.216 800.186 493.814 800.479 474.355 797.344C427.352 771.72 385.424 737.764 356.476 704.969C373.841 703.052 387.065 701.592 395.981 700.608C378.651 696.201 356.825 689.145 338.699 682.714C318.449 654.234 310.079 628.459 319.316 612.285C378.386 617.887 563.682 762.523 635.699 839.066Z" fill="#E7E8F1"/>
</svg>
