<svg width="302" height="179" viewBox="0 0 302 179" fill="none" xmlns="http://www.w3.org/2000/svg">
<path d="M133.138 89.705C145.473 124.43 127.323 162.58 92.5971 174.916C57.8711 187.252 19.7221 169.101 7.38613 134.375C-8.99287 88.266 2.91613 17.089 32.7651 6.48498C64.3961 -4.75002 115.675 40.548 133.138 89.705Z" fill="#EBC8BC"/>
<path d="M168.547 88.374C156.212 123.099 174.362 161.249 209.088 173.585C243.814 185.921 281.963 167.77 294.299 133.044C310.678 86.935 298.769 15.758 268.92 5.15404C237.29 -6.07996 186.011 39.217 168.547 88.374Z" fill="#DFA895"/>
<path d="M217.839 112.016C217.839 148.866 187.965 178.74 151.115 178.74C114.265 178.74 84.3906 148.866 84.3906 112.016C84.3906 63.085 119.438 0 151.115 0C184.678 0 217.839 59.849 217.839 112.016Z" fill="#F7E8E3"/>
<path d="M151.113 0C150.642 0 150.167 0.0589985 149.694 0.0859985V178.705C150.168 178.715 150.637 178.741 151.113 178.741C187.963 178.741 217.837 148.867 217.837 112.017C217.838 59.849 184.677 0 151.113 0Z" fill="#EBC8BC"/>
</svg>
