<svg width="142" height="145" viewBox="0 0 142 145" fill="none" xmlns="http://www.w3.org/2000/svg">
<path fill-rule="evenodd" clip-rule="evenodd" d="M135.61 0H134.19V6.525H121.41V0H119.99V6.525H107.21V0H105.79V6.525H93.01V0H91.59V6.525H78.81V0H77.39V6.525H64.61V0H63.19V6.525H50.41V0H48.99V6.525H36.21V0H34.79V6.525H22.01V0H20.59V6.525H7.81V0H6.39V6.525H0V7.975H6.39V21.025H0V22.475H6.39V35.525H0V36.975H6.39V50.025H0V51.475H6.39V64.525H0V65.975H6.39V79.025H0V80.475H6.39V93.525H0V94.975H6.39V108.025H0V109.475H6.39V122.525H0V123.975H6.39V137.025H0V138.475H6.39V145H7.81V138.475H20.59V145H22.01V138.475H34.79V145H36.21V138.475H48.99V145H50.41V138.475H63.19V145H64.61V138.475H77.39V145H78.81V138.475H91.59V145H93.01V138.475H105.79V145H107.21V138.475H119.99V145H121.41V138.475H134.19V145H135.61V138.475H142V137.025H135.61V123.975H142V122.525H135.61V109.475H142V108.025H135.61V94.975H142V93.525H135.61V80.475H142V79.025H135.61V65.975H142V64.525H135.61V51.475H142V50.025H135.61V36.975H142V35.525H135.61V22.475H142V21.025H135.61V7.975H142V6.525H135.61V0ZM121.41 21.025H134.19V7.975H121.41V21.025ZM121.41 35.525H134.19V22.475H121.41V35.525ZM121.41 50.025H134.19V36.975H121.41V50.025ZM121.41 64.525H134.19V51.475H121.41V64.525ZM121.41 79.025H134.19V65.975H121.41V79.025ZM121.41 93.525H134.19V80.475H121.41V93.525ZM121.41 108.025H134.19V94.975H121.41V108.025ZM121.41 122.525H134.19V109.475H121.41V122.525ZM121.41 137.025H134.19V123.975H121.41V137.025ZM20.59 123.975H7.81V137.025H20.59V123.975ZM20.59 109.475H7.81V122.525H20.59V109.475ZM20.59 94.975H7.81V108.025H20.59V94.975ZM20.59 80.475H7.81V93.525H20.59V80.475ZM20.59 65.975H7.81V79.025H20.59V65.975ZM20.59 51.475H7.81V64.525H20.59V51.475ZM20.59 36.975H7.81V50.025H20.59V36.975ZM20.59 22.475H7.81V35.525H20.59V22.475ZM20.59 7.975H7.81V21.025H20.59V7.975ZM107.21 21.025H119.99V7.975H107.21V21.025ZM107.21 35.525H119.99V22.475H107.21V35.525ZM107.21 50.025H119.99V36.975H107.21V50.025ZM107.21 64.525H119.99V51.475H107.21V64.525ZM107.21 79.025H119.99V65.975H107.21V79.025ZM107.21 93.525H119.99V80.475H107.21V93.525ZM107.21 108.025H119.99V94.975H107.21V108.025ZM107.21 122.525H119.99V109.475H107.21V122.525ZM34.79 109.475H22.01V122.525H34.79V109.475ZM34.79 94.975H22.01V108.025H34.79V94.975ZM34.79 80.475H22.01V93.525H34.79V80.475ZM34.79 65.975H22.01V79.025H34.79V65.975ZM34.79 51.475H22.01V64.525H34.79V51.475ZM34.79 36.975H22.01V50.025H34.79V36.975ZM34.79 22.475H22.01V35.525H34.79V22.475ZM93.01 35.525H105.79V22.475H93.01V35.525ZM93.01 50.025H105.79V36.975H93.01V50.025ZM93.01 64.525H105.79V51.475H93.01V64.525ZM93.01 79.025H105.79V65.975H93.01V79.025ZM93.01 93.525H105.79V80.475H93.01V93.525ZM93.01 108.025H105.79V94.975H93.01V108.025ZM48.99 94.975H36.21V108.025H48.99V94.975ZM48.99 80.475H36.21V93.525H48.99V80.475ZM48.99 65.975H36.21V79.025H48.99V65.975ZM48.99 51.475H36.21V64.525H48.99V51.475ZM48.99 36.975H36.21V50.025H48.99V36.975ZM78.81 50.025H91.59V36.975H78.81V50.025ZM78.81 64.525H91.59V51.475H78.81V64.525ZM78.81 79.025H91.59V65.975H78.81V79.025ZM78.81 93.525H91.59V80.475H78.81V93.525ZM63.19 80.475H50.41V93.525H63.19V80.475ZM63.19 65.975H50.41V79.025H63.19V65.975ZM63.19 51.475H50.41V64.525H63.19V51.475ZM64.61 64.525H77.39V51.475H64.61V64.525ZM64.61 79.025H77.39V65.975H64.61V79.025ZM77.39 80.475H64.61V93.525H77.39V80.475ZM64.61 50.025H77.39V36.975H64.61V50.025ZM50.41 50.025H63.19V36.975H50.41V50.025ZM63.19 94.975H50.41V108.025H63.19V94.975ZM77.39 94.975H64.61V108.025H77.39V94.975ZM91.59 94.975H78.81V108.025H91.59V94.975ZM78.81 35.525H91.59V22.475H78.81V35.525ZM64.61 35.525H77.39V22.475H64.61V35.525ZM50.41 35.525H63.19V22.475H50.41V35.525ZM36.21 35.525H48.99V22.475H36.21V35.525ZM48.99 109.475H36.21V122.525H48.99V109.475ZM63.19 109.475H50.41V122.525H63.19V109.475ZM77.39 109.475H64.61V122.525H77.39V109.475ZM91.59 109.475H78.81V122.525H91.59V109.475ZM105.79 109.475H93.01V122.525H105.79V109.475ZM93.01 21.025H105.79V7.975H93.01V21.025ZM78.81 21.025H91.59V7.975H78.81V21.025ZM64.61 21.025H77.39V7.975H64.61V21.025ZM50.41 21.025H63.19V7.975H50.41V21.025ZM36.21 21.025H48.99V7.975H36.21V21.025ZM22.01 21.025H34.79V7.975H22.01V21.025ZM34.79 123.975H22.01V137.025H34.79V123.975ZM48.99 123.975H36.21V137.025H48.99V123.975ZM63.19 123.975H50.41V137.025H63.19V123.975ZM77.39 123.975H64.61V137.025H77.39V123.975ZM91.59 123.975H78.81V137.025H91.59V123.975ZM105.79 123.975H93.01V137.025H105.79V123.975ZM119.99 123.975H107.21V137.025H119.99V123.975Z" fill="#EAEAEA"/>
</svg>
