<svg width="209" height="186" viewBox="0 0 209 186" fill="none" xmlns="http://www.w3.org/2000/svg">
<path d="M190 20.0834C178.958 9.01267 164.321 2.25572 148.733 1.03312C133.145 -0.189489 117.633 4.20287 105 13.4168C91.7465 3.55882 75.25 -0.911245 58.8326 0.906735C42.4152 2.72471 27.2964 10.6957 16.5207 23.2145C5.74496 35.7333 0.112836 51.8701 0.758448 68.3752C1.40406 84.8804 8.27946 100.528 20.0001 112.167L84.6876 176.958C90.1045 182.289 97.4 185.277 105 185.277C112.6 185.277 119.896 182.289 125.313 176.958L190 112.167C202.162 99.9299 208.989 83.3779 208.989 66.1251C208.989 48.8722 202.162 32.3202 190 20.0834V20.0834ZM175.313 97.7918L110.625 162.479C109.889 163.223 109.013 163.813 108.047 164.215C107.082 164.618 106.046 164.825 105 164.825C103.954 164.825 102.918 164.618 101.953 164.215C100.987 163.813 100.111 163.223 99.3751 162.479L34.6876 97.4793C26.5184 89.1287 21.944 77.9112 21.944 66.2293C21.944 54.5473 26.5184 43.3298 34.6876 34.9793C43.0121 26.7604 54.2394 22.1519 65.9376 22.1519C77.6358 22.1519 88.8631 26.7604 97.1876 34.9793C98.156 35.9556 99.3081 36.7305 100.577 37.2594C101.847 37.7882 103.208 38.0605 104.583 38.0605C105.959 38.0605 107.32 37.7882 108.589 37.2594C109.859 36.7305 111.011 35.9556 111.979 34.9793C120.304 26.7604 131.531 22.1519 143.229 22.1519C154.927 22.1519 166.155 26.7604 174.479 34.9793C182.761 43.2204 187.485 54.3771 187.641 66.0593C187.797 77.7416 183.371 89.0202 175.313 97.4793V97.7918Z" fill="#E7E8F1"/>
</svg>
