<svg width="141" height="100" viewBox="0 0 141 100" fill="none" xmlns="http://www.w3.org/2000/svg">
<path d="M85.0268 19.869C85.1335 19.4315 85.0728 18.9699 84.8566 18.5749C84.3047 17.6174 83.5693 16.7782 82.6923 16.1056C81.8154 15.433 80.8143 14.9402 79.7465 14.6555C78.6786 14.3707 77.5651 14.2996 76.4697 14.4463C75.3743 14.5929 74.3187 14.9544 73.3633 15.51L69.7025 17.6214L61.189 13.62C60.947 13.4946 60.6784 13.4292 60.4058 13.4292C60.1332 13.4292 59.8646 13.4946 59.6225 13.62L54.5144 16.5657C54.262 16.7113 54.0511 16.9193 53.9021 17.1697C53.753 17.4202 53.6707 17.7047 53.6631 17.996C53.6548 18.2895 53.7226 18.5801 53.8598 18.8397C53.9971 19.0992 54.1991 19.3189 54.4463 19.4773L60.0652 23.019L57.1025 24.7217L48.9636 25.7092C48.6364 25.7497 48.328 25.8843 48.0759 26.0966C47.8237 26.309 47.6386 26.59 47.543 26.9055C47.4475 27.221 47.4456 27.5575 47.5375 27.8741C47.6295 28.1907 47.8114 28.4738 48.0612 28.689L54.0887 33.8992C54.8823 34.6566 55.8985 35.1384 56.9872 35.2733C58.0758 35.4082 59.1789 35.1891 60.1333 34.6484L84.1755 20.9076C84.3804 20.8012 84.5615 20.6543 84.7079 20.4758C84.8542 20.2972 84.9628 20.0908 85.0268 19.869ZM58.5839 31.7879C58.2568 31.9678 57.8796 32.0353 57.5105 31.98C57.1413 31.9246 56.8005 31.7494 56.5406 31.4814L53.3055 28.706L57.9539 28.1441C58.1823 28.1148 58.4024 28.0395 58.6009 27.9227L64.322 24.6365C64.5769 24.4894 64.7893 24.2788 64.9385 24.0251C65.0877 23.7715 65.1686 23.4835 65.1733 23.1892C65.1768 22.897 65.105 22.6088 64.9649 22.3523C64.8247 22.0958 64.6209 21.8798 64.3731 21.7249L58.7541 18.1663L60.6271 17.0936L69.1406 21.0438C69.3827 21.1692 69.6513 21.2347 69.9239 21.2347C70.1965 21.2347 70.4651 21.1692 70.7071 21.0438L75.066 18.5238C75.9593 18.0232 76.9824 17.8027 78.0025 17.8907C79.0227 17.9788 79.9928 18.3714 80.7871 19.0176L58.5839 31.7879Z" fill="#F7E8E3"/>
<path d="M139.162 15.869C139.269 15.4315 139.208 14.9699 138.992 14.5749C138.44 13.6174 137.704 12.7782 136.827 12.1056C135.951 11.433 134.949 10.9402 133.882 10.6555C132.814 10.3707 131.7 10.2996 130.605 10.4463C129.509 10.5929 128.454 10.9544 127.498 11.51L123.838 13.6214L115.324 9.62004C115.082 9.49465 114.813 9.4292 114.541 9.4292C114.268 9.4292 114 9.49465 113.758 9.62004L108.65 12.5657C108.397 12.7113 108.186 12.9193 108.037 13.1697C107.888 13.4202 107.806 13.7047 107.798 13.996C107.79 14.2895 107.858 14.5801 107.995 14.8397C108.132 15.0992 108.334 15.3189 108.581 15.4773L114.2 19.019L111.238 20.7217L103.099 21.7092C102.772 21.7497 102.463 21.8843 102.211 22.0966C101.959 22.309 101.774 22.59 101.678 22.9055C101.583 23.221 101.581 23.5575 101.673 23.8741C101.765 24.1907 101.947 24.4738 102.196 24.689L108.224 29.8992C109.017 30.6566 110.034 31.1384 111.122 31.2733C112.211 31.4082 113.314 31.1891 114.268 30.6484L138.311 16.9076C138.516 16.8012 138.697 16.6543 138.843 16.4758C138.989 16.2972 139.098 16.0908 139.162 15.869ZM112.719 27.7879C112.392 27.9678 112.015 28.0353 111.646 27.98C111.276 27.9246 110.936 27.7494 110.676 27.4814L107.441 24.706L112.089 24.1441C112.317 24.1148 112.538 24.0395 112.736 23.9227L118.457 20.6365C118.712 20.4894 118.924 20.2788 119.074 20.0251C119.223 19.7715 119.304 19.4835 119.308 19.1892C119.312 18.897 119.24 18.6088 119.1 18.3523C118.96 18.0958 118.756 17.8798 118.508 17.7249L112.889 14.1663L114.762 13.0936L123.276 17.0438C123.518 17.1692 123.786 17.2347 124.059 17.2347C124.332 17.2347 124.6 17.1692 124.842 17.0438L129.201 14.5238C130.094 14.0232 131.118 13.8027 132.138 13.8907C133.158 13.9788 134.128 14.3714 134.922 15.0176L112.719 27.7879Z" fill="#F7E8E3"/>
<path d="M121.297 55.869C121.404 55.4315 121.343 54.9699 121.127 54.5749C120.575 53.6174 119.84 52.7782 118.963 52.1056C118.086 51.433 117.085 50.9402 116.017 50.6555C114.949 50.3707 113.835 50.2996 112.74 50.4463C111.645 50.5929 110.589 50.9544 109.634 51.51L105.973 53.6214L97.4593 49.62C97.2173 49.4946 96.9487 49.4292 96.6761 49.4292C96.4035 49.4292 96.1349 49.4946 95.8928 49.62L90.7847 52.5657C90.5323 52.7113 90.3214 52.9193 90.1724 53.1697C90.0233 53.4202 89.941 53.7047 89.9334 53.996C89.9251 54.2895 89.9929 54.5801 90.1301 54.8397C90.2674 55.0992 90.4694 55.3189 90.7166 55.4773L96.3355 59.019L93.3728 60.7217L85.2339 61.7092C84.9067 61.7497 84.5983 61.8843 84.3462 62.0966C84.094 62.309 83.9089 62.59 83.8133 62.9055C83.7178 63.221 83.7159 63.5575 83.8078 63.8741C83.8998 64.1907 84.0817 64.4738 84.3315 64.689L90.359 69.8992C91.1526 70.6566 92.1688 71.1384 93.2575 71.2733C94.3461 71.4082 95.4492 71.1891 96.4036 70.6484L120.446 56.9076C120.651 56.8012 120.832 56.6543 120.978 56.4758C121.125 56.2972 121.233 56.0908 121.297 55.869ZM94.8542 67.7879C94.5271 67.9678 94.1499 68.0353 93.7808 67.98C93.4116 67.9246 93.0708 67.7494 92.8109 67.4814L89.5758 64.706L94.2242 64.1441C94.4526 64.1148 94.6727 64.0395 94.8712 63.9227L100.592 60.6365C100.847 60.4894 101.06 60.2788 101.209 60.0251C101.358 59.7715 101.439 59.4835 101.444 59.1892C101.447 58.897 101.375 58.6088 101.235 58.3523C101.095 58.0958 100.891 57.8798 100.643 57.7249L95.0244 54.1663L96.8974 53.0936L105.411 57.0438C105.653 57.1692 105.922 57.2347 106.194 57.2347C106.467 57.2347 106.735 57.1692 106.977 57.0438L111.336 54.5238C112.23 54.0232 113.253 53.8027 114.273 53.8907C115.293 53.9788 116.263 54.3714 117.057 55.0176L94.8542 67.7879Z" fill="#F7E8E3"/>
<line x1="47.2244" y1="34.3178" x2="1.77732" y2="61.5861" stroke="#F7E8E3" stroke-width="2" stroke-linecap="round"/>
<line x1="83.5372" y1="70.3282" x2="38.9548" y2="98.9884" stroke="#F7E8E3" stroke-width="2" stroke-linecap="round"/>
<line x1="1" y1="-1" x2="54" y2="-1" transform="matrix(-0.849901 0.526943 -0.526936 -0.849905 101.703 28.9458)" stroke="#F7E8E3" stroke-width="2" stroke-linecap="round"/>
</svg>
