<svg width="282" height="48" viewBox="0 0 282 48" fill="none" xmlns="http://www.w3.org/2000/svg">
<rect y="-19.3431" width="8" height="128" transform="rotate(-45 0 -19.3431)" fill="#F7E8E3"/>
<rect x="24" y="-19.3431" width="8" height="128" transform="rotate(-45 24 -19.3431)" fill="#F7E8E3"/>
<rect x="48" y="-19.3431" width="8" height="128" transform="rotate(-45 48 -19.3431)" fill="#F7E8E3"/>
<rect x="72" y="-19.3431" width="8" height="128" transform="rotate(-45 72 -19.3431)" fill="#F7E8E3"/>
<rect x="96" y="-19.3431" width="8" height="128" transform="rotate(-45 96 -19.3431)" fill="#F7E8E3"/>
<rect x="120" y="-19.3431" width="8" height="128" transform="rotate(-45 120 -19.3431)" fill="#F7E8E3"/>
<rect x="144" y="-19.3431" width="8" height="128" transform="rotate(-45 144 -19.3431)" fill="#F7E8E3"/>
<rect x="168" y="-19.3431" width="8" height="128" transform="rotate(-45 168 -19.3431)" fill="#F7E8E3"/>
<rect x="192" y="-19.3431" width="8" height="128" transform="rotate(-45 192 -19.3431)" fill="#F7E8E3"/>
<rect x="216" y="-19.3431" width="8" height="128" transform="rotate(-45 216 -19.3431)" fill="#F7E8E3"/>
<rect x="240" y="-19.3431" width="8" height="128" transform="rotate(-45 240 -19.3431)" fill="#F7E8E3"/>
<rect x="264" y="-19.3431" width="8" height="128" transform="rotate(-45 264 -19.3431)" fill="#F7E8E3"/>
</svg>
