<svg width="772" height="434" viewBox="0 0 772 434" fill="none" xmlns="http://www.w3.org/2000/svg">
<g clip-path="url(#clip0_223_724)">
<path d="M19.6655 8.44871C16.9258 5.71921 14.2549 2.91152 11.6746 0C24.4693 6.63849 35.7121 15.6809 48.163 22.9111C44.9383 18.2844 41.1419 14.3351 41.3998 7.7974C43.9725 10.5092 46.5024 13.2634 49.1252 15.9258C61.0045 27.9841 73.9299 38.4108 89.8107 45.0699C98.8321 48.8526 106.669 55.6558 117.193 55.306C121.578 55.1603 125.644 56.0643 129.51 58.0664C152.14 69.7847 175.952 79.2154 197.126 93.7591C210.465 102.921 224.112 111.643 237.798 120.282C245.457 125.117 254.532 127.235 261.956 132.752C265.397 135.308 266.411 138.099 266.465 142.043C263.226 142.226 262.079 140.935 261.842 138.383C261.281 132.334 257.366 130.806 252.003 131.126C245.886 131.491 238.606 137.945 238.407 143.913C247.407 139.455 254.272 143.16 260.198 149.978C258.427 149.083 256.656 148.188 254.883 147.296C254.445 147.241 254.009 147.183 253.573 147.125L253.825 148.358C259.952 159.376 261.813 171.62 263.638 183.801C264.485 189.456 259.992 194.139 259.757 199.931C259.421 208.221 260.298 209.402 268.607 210.91C271.268 211.392 273.473 214.393 275.922 216.269L277.209 213.914C279.505 215.397 278.593 218.861 281.537 220.238C283.651 217.66 285.79 215.051 288.174 212.142C290.371 214.326 290.604 218.044 292.913 219.824C296.103 219.832 294.781 216.968 296.545 215.716C299.418 219.195 305.594 217.097 307.626 223.903C309.448 218.453 305.828 214.868 307.034 210.666C311.861 215.246 309.677 222.628 314.208 227.278C313.786 222.629 319.721 219.348 316.031 214.327C318.891 213.621 318.786 216.599 320.668 216.865C320.941 215.957 321.233 214.984 321.583 213.816C324.554 215.822 327.286 218.01 331.244 216.665C329.545 212.061 326.275 208.753 322.654 205.504L328.532 207.056C328.063 201.13 333.162 201.673 337.181 199.752C332.089 195.433 325.124 197.305 319.954 192.994C325.485 192.319 330.2 196.113 334.931 193.615C335.036 191.523 332.259 192.832 332.405 190.682C334.029 190.336 335.685 189.984 337.397 189.619C338.281 187.476 334.98 188.034 335.277 186.033L338.122 184.866C337.195 177.213 331.914 171.768 323.456 167.272C316.8 163.732 310.037 160.426 303.334 156.991C300.948 155.768 299.814 153.411 298.342 151.402C291.903 142.616 284.133 136.149 272.598 135.699C270.744 135.627 268.748 135.197 266.957 132.438C278.368 132.537 289.16 132.974 298.06 139.677C318.619 155.162 340.766 168.23 362.07 182.57C375.706 191.749 391.453 194.816 407.717 192.849C431.046 190.029 454.397 187.5 477.795 185.355C480.102 185.144 482.422 184.689 484.649 184.044C505.248 178.082 524.621 183.864 543.903 190.237C564.627 197.086 585.61 202.283 607.655 202.179C620.503 202.118 632.525 198.359 644.565 194.671C664.792 188.476 684.193 180.298 702.473 169.562C702.901 169.311 703.573 169.478 704.65 169.424C695.805 185.179 681.855 193.76 666.007 199.875C650.27 205.948 633.82 207.71 616.856 206.628C617.372 209.406 618.929 209.313 620.136 209.539C643.891 213.979 667.664 215.894 691.957 213.95C715.406 212.073 738.642 208.818 761.962 206.085C763.069 205.955 764.229 205.519 765.55 206.754C755.817 216.869 743.264 221.111 730.118 223.441C714.426 226.222 698.509 227.313 682.555 226.362C677.154 226.041 671.804 224.881 666.423 224.166C661.72 223.541 656.966 222.708 651.336 226.319C692.637 238.705 734.624 245.205 772 265.239L771.251 268.085C740.245 264.723 710.576 254.609 680.334 247.533C679.901 249.561 680.587 250.198 681.516 250.61C695.844 256.969 710.299 263.057 724.478 269.734C738.612 276.391 752.9 282.89 764.852 293.351C766.942 295.181 768.052 297.431 769.516 301.163C743.403 286.91 716.697 277.223 690.475 266.413C689.565 265.886 688.702 265.048 687.575 265.96C687.498 267.152 688.457 267.384 689.201 267.81C700.079 274.804 710.922 281.854 721.844 288.78C737.658 298.811 752.845 309.613 765.21 323.888C766.41 325.273 766.969 327.215 767.489 329.316C744.462 312.878 719.524 299.931 694.493 286.993C714.278 304.776 737.594 318.485 753.934 340.857C738.368 333.443 726.456 320.958 710.829 314.495C716.038 321.667 723.648 326.533 729.64 335.025C720.273 332.661 713.67 327.245 705.583 326.635C703.939 328.714 706.732 329.965 705.77 332.304C699.607 331.716 693.938 329.049 688.597 326.366C686.103 327.454 688.153 329.425 686.606 331.084C680.282 332.902 675.256 327.578 669.258 326.218C666.21 332.858 665.091 333.265 658.126 330.172C656.887 329.622 655.684 328.983 654.499 328.323C649.738 325.673 645.253 323.182 641.1 329.627C638.029 334.394 633.783 330.765 629.678 330.006C627.97 336.812 623.587 335.135 619.5 332.881C615.81 330.847 613.576 330.518 612.447 335.504C611.614 339.181 608.571 338.721 605.859 337.625C603.191 336.548 600.615 335.241 598.1 334.081C591.808 341.163 591.785 341.203 583.664 336.538C582.382 335.802 581.214 335.402 579.835 335.811C575.078 337.221 570.671 336.781 566.613 334.491C563.026 337.398 559.271 337.739 554.37 336.598C550.486 335.693 546.077 336.592 541.711 335.667C535.831 334.423 529.598 334.786 524.527 330.806C523.673 330.136 522.854 330.213 521.905 330.075C514.98 329.071 507.65 329.191 502.179 323.701C500.643 322.159 498.881 322.993 497.21 323.098C494.251 323.285 491.523 323.297 489.129 320.901C486.015 317.785 482.71 315.338 477.854 314.53C473.315 313.775 472.535 308.342 470.122 304.304C467.263 305.81 464.536 305.769 462.773 302.315C462.154 301.103 461.099 299.957 459.491 300.617C455.793 302.137 452.787 301.257 449.948 298.546C448.213 296.888 446.715 297.967 445.925 299.826C444.455 303.284 442.441 302.058 440.441 300.541C437.565 298.36 434.757 296.088 431.099 294.014C435.193 302.68 428.669 309.875 428.714 318.08C428.755 325.458 432.194 331.059 434.586 337.281C436.918 343.343 440.658 349.343 432.38 354.247C431.713 353.719 430.743 352.951 429.751 352.166C427.889 353.854 429.406 356.616 427.2 358.247C423.107 358.437 423.894 353.655 420.739 351.749C419.684 351.523 418.502 355.39 416.828 353.142C413.381 348.518 408.706 349.542 404.124 349.657C400.869 349.738 400.026 347.219 399.095 344.826C398.352 342.914 398.465 340.367 395.777 339.854C395.195 339.743 394.046 340.252 393.873 340.733C392.927 343.354 394.915 345 396.296 346.889C393.43 349.258 390.166 348.174 388.272 346.452C385.431 343.867 381.893 342.873 378.74 341.732C370.41 338.718 367.254 332.079 367.474 324.696C367.741 315.737 362.185 311.708 356.227 308.188C346.202 302.264 336.849 295.537 327.768 288.296C315.507 278.519 306.194 266.126 296.778 253.931C294.978 254.479 295.55 255.954 295.083 256.916C293.3 260.586 290.638 260.883 288.255 257.461C286.073 254.325 284.313 251.608 280.234 255.493C278.411 257.23 276.553 255.426 275.66 253.547C274.643 251.407 273.846 249.202 270.901 248.575C269.386 249.086 269.094 251.818 266.766 251.851C264.57 251.447 264.719 249.266 263.769 247.909C262.783 246.5 261.651 245.194 260.258 243.431C255.38 250.091 250.756 243.181 246.257 242.502C241.562 241.794 238.489 235.588 235.886 230.394C232.042 233.003 228.366 233.745 225.735 229.045C224.661 227.128 223.111 227.083 221.271 227.23C213.853 227.821 211.491 226.329 209.007 219.372C208.477 217.889 208.041 216.438 206.782 215.411C200.438 217.995 198.832 217.356 196.15 211.225C194.992 208.579 193.811 205.944 192.49 202.965C180.548 207.669 178.902 196.91 173.973 191.102C162.3 194.714 163.056 182.098 156.216 178.255C149.215 180.428 144.964 175.943 142.093 169.629C140.41 165.926 138.208 163.5 133.982 163.341C125.617 163.026 121.809 156.738 117.979 150.74C116.457 148.357 114.504 147.342 112.02 146.599C107.523 145.254 103.284 143.379 100.013 139.814C98.0542 137.679 95.591 135.667 99.2416 132.508C90.5957 126.781 79.7076 126.959 71.9398 119.818C74.8933 113.967 83.0429 113.559 84.8428 106.361C68.4937 104.802 52.036 103.847 36.6676 97.0189C50.9072 92.6616 66.372 93.5164 79.4537 84.2614C56.8174 81.2423 35.1496 74.2546 12.6392 70.0812C16.2891 66.3122 20.9066 66.1083 25.28 65.587C32.6462 64.7093 40.0052 65.6928 47.3505 66.3093C55.4484 66.9891 63.4538 66.1444 71.6975 64.5263C49.1366 57.7143 26.7505 50.7614 2.43274 45.7028C7.43922 41.9872 11.6737 42.478 15.6964 42.9785C30.9182 44.8723 45.9816 47.6804 60.824 51.5903C62.6262 52.065 64.3702 53.2047 66.2523 50.6177C44.1977 40.6054 21.5329 32.615 0 19.9344C3.89227 17.325 6.54897 17.4989 9.39356 18.6499C20.7016 23.2253 32.4729 26.611 43.4914 31.9388C43.9647 32.1677 44.5908 32.08 45.5925 31.6081C36.7231 24.1248 27.8846 16.6378 19.6655 8.44871" fill="#3F4367"/>
<path d="M392.005 406.547C386.669 410.961 383.913 410.2 379.113 405.444C372.746 399.136 368.916 391.987 368.75 383.027C358.976 383.443 351.88 377.445 348.343 357.694C328.246 354.473 330.516 338.768 330.272 324.014C318.693 322.607 308.757 318.142 301.156 308.087C310.349 305.598 317.641 300.043 325.001 294.61L325.914 295.81C321.038 300.092 316.161 304.373 310.596 309.258C319.863 314.826 328.546 320.674 340.406 318.093C340.218 323.962 339.77 329.545 340.825 335.093C341.919 340.847 344.524 344.76 350.919 345.098C354.748 345.301 354.602 349.127 355.83 351.359C357.868 355.063 358.816 359.349 360.537 363.251C362.794 368.368 366.353 371.481 372.834 369.082C371.767 377.574 377.239 383.261 380.003 389.9C381.18 392.728 383.157 396.148 387.184 395.827C390.978 395.525 390.308 391.489 391.888 388.75C395.123 392.223 397.901 395.609 401.091 398.547C407.3 404.266 410.546 403.307 412.746 395.436C412.994 394.549 413.406 393.708 413.856 392.552C417.866 395.926 417.913 400.565 419.051 404.693C420.658 410.523 423.155 415.554 429.113 418.131C431.356 419.1 433.258 419.993 435.437 417.805C437.432 415.8 438.304 414.195 436.851 411.262C435.245 408.021 434.545 404.332 433.81 400.525C441.712 408.996 447.247 420.546 461.319 421.316C462.202 415.859 460.43 411.611 457.995 407.693C454.93 402.764 452.301 397.68 450.636 392.113L450.577 392.052C454.072 395.644 457.443 399.368 461.108 402.776C463.192 404.713 465.64 406.894 468.864 405.098C472.397 403.131 471.844 399.625 470.803 396.803C467.64 388.228 461.121 381.684 456.827 374.109C459.281 374.434 459.367 374.371 460.276 375.61C466.264 383.773 473.734 390.48 481.259 397.136C486.068 401.39 491.639 403.998 498.075 404.019C504.232 404.04 506.351 400.525 504.249 394.755C501.27 386.579 494.046 382.378 487.967 377.1C487.54 376.729 486.893 376.58 487.239 375.423C492.745 376.722 498.06 379.128 503.812 379.665C508.23 380.078 512.522 380.922 517.01 379.165C520.78 377.689 521.71 374.675 519.943 372.403C516.239 367.641 514.052 361.323 507.67 358.246C515.549 359.53 523.29 359.195 532.048 357.482C505.514 343.482 478.512 332.391 455.593 314.087C484.233 328.467 512.542 343.496 542.408 357.264C537.333 364.479 529.235 363.259 522.313 364.961C522.749 368.939 526.034 370.962 527.621 374C531.034 380.534 530.141 383.542 523.063 386.019C518.921 387.468 514.616 387.088 510.345 386.991C509.38 386.969 508.41 386.866 507.499 388.18C509.76 392.348 511.139 397.065 511.06 402.06C510.952 408.935 507.069 412.316 500.256 411.627C497.786 411.377 495.331 410.983 493.003 410.673C491.26 413.382 492.378 415.926 492.363 418.391C492.318 425.876 489.501 428.281 482.194 426.741C479.552 426.184 477.014 425.139 474.426 424.319C473.987 424.241 473.55 424.161 473.113 424.08L473.218 425.443C472.189 434.361 470.245 435.588 462.032 432.412C457.342 430.598 452.815 428.474 448.666 424.106C448.206 428.766 446.646 432.388 442.445 432.996C437.37 433.731 434.325 430.35 431.927 425.355C429.414 430.379 426.909 429.189 423.841 426.549C420.47 423.649 418.963 419.036 414.758 416.952C414.497 417.231 414.087 417.462 414.067 417.723C413.817 420.959 414.508 425.02 410.308 425.936C406.359 426.798 403.218 424.653 401.357 420.958C398.765 415.811 393.811 412.253 392.004 406.547" fill="#3F4367"/>
<path d="M293.415 168.485C286.995 165.292 285.171 156.625 277.229 160.43C277.255 157.252 278.431 155.771 279.344 153.996C278.53 151.373 274.27 150.06 275.992 145.803C283.48 151.412 288.192 159.006 293.415 168.485L293.415 168.485Z" fill="#3F4367"/>
<path d="M271.241 159.093C266.82 158.049 266.101 155.61 264.049 152.725C267.527 154.164 268.615 156.311 271.241 159.093Z" fill="#3F4367"/>
<path d="M261.261 150.769C262.067 150.146 262.903 150.119 263.54 150.947C263.68 151.129 263.351 152.025 263.091 152.103C262.016 152.426 261.444 151.807 261.261 150.769H261.261Z" fill="#3F4367"/>
<path d="M450.636 392.112L450.416 391.99L450.579 392.055L450.636 392.112Z" fill="#3F4367"/>
</g>
<defs>
<clipPath id="clip0_223_724">
<rect width="772" height="434" fill="white"/>
</clipPath>
</defs>
</svg>
