<?xml version="1.0" standalone="no"?>
<!DOCTYPE svg PUBLIC "-//W3C//DTD SVG 20010904//EN"
 "http://www.w3.org/TR/2001/REC-SVG-20010904/DTD/svg10.dtd">
<svg version="1.0" xmlns="http://www.w3.org/2000/svg"
 width="1578.000000pt" height="1578.000000pt" viewBox="0 0 1578.000000 1578.000000"
 preserveAspectRatio="xMidYMid meet">
<metadata>
Created by potrace 1.14, written by Peter Selinger 2001-2017
</metadata>
<g transform="translate(0.000000,1578.000000) scale(0.100000,-0.100000)"
fill="#000000" stroke="none">
<path d="M281 12274 c143 -152 312 -312 468 -444 29 -25 63 -53 75 -63 11 -11
40 -35 64 -55 37 -31 41 -37 25 -43 -11 -4 -37 3 -65 17 -26 13 -71 34 -100
45 -109 44 -564 211 -595 219 -38 9 -117 -5 -133 -25 -16 -19 16 -39 242 -153
233 -116 207 -105 692 -312 215 -92 391 -171 393 -177 2 -5 -7 -15 -21 -21
-20 -9 -45 -5 -133 17 -93 25 -191 48 -242 57 -8 2 -46 10 -85 18 -75 16 -270
51 -346 61 -25 4 -83 13 -130 20 -131 19 -226 14 -282 -14 -27 -14 -48 -28
-48 -32 0 -4 15 -10 33 -13 257 -49 621 -147 1340 -362 23 -7 17 -14 -17 -19
-14 -3 -38 -7 -53 -10 -115 -21 -334 -26 -488 -11 -123 12 -310 15 -381 5 -91
-13 -98 -14 -112 -22 -6 -5 -12 -5 -12 -2 0 3 -22 -6 -50 -21 -51 -28 -64 -49
-32 -51 13 -1 258 -53 322 -68 8 -2 83 -20 165 -39 280 -67 490 -115 530 -122
22 -3 42 -7 45 -9 3 -2 26 -6 50 -9 25 -4 65 -11 90 -16 36 -7 102 -17 130
-20 10 0 -44 -33 -107 -64 -74 -36 -159 -67 -238 -86 -60 -14 -51 -12 -253
-50 -90 -16 -166 -32 -171 -34 -4 -3 -23 -8 -41 -11 -54 -10 -67 -21 -34 -29
16 -4 43 -14 59 -21 38 -17 146 -49 255 -74 100 -23 257 -45 470 -66 123 -12
165 -17 170 -22 14 -13 -43 -84 -105 -128 -38 -27 -90 -70 -115 -93 l-44 -44
34 -28 c53 -43 122 -75 285 -131 83 -28 171 -63 196 -77 l47 -26 -20 -27 c-28
-38 -19 -67 42 -128 55 -56 114 -89 234 -132 83 -30 99 -44 151 -124 97 -150
173 -206 297 -219 70 -7 113 -32 148 -85 16 -26 30 -52 30 -58 0 -6 20 -38 44
-70 57 -78 114 -108 191 -100 37 4 59 1 73 -9 19 -13 112 -146 112 -160 0 -4
16 -24 35 -45 19 -22 35 -36 35 -33 0 4 6 1 14 -5 16 -13 81 -18 118 -8 25 7
30 1 93 -97 77 -122 120 -158 193 -161 26 -1 62 4 80 11 l33 14 35 -78 c97
-215 115 -230 227 -193 46 16 52 10 85 -82 27 -74 68 -124 114 -137 18 -6 68
-10 111 -10 71 0 80 -2 102 -26 14 -15 25 -30 25 -34 0 -5 14 -17 32 -28 35
-22 72 -21 120 3 17 8 34 15 37 15 3 0 22 -30 41 -67 42 -81 114 -159 155
-168 17 -4 67 -25 113 -48 78 -38 85 -39 122 -28 22 6 46 21 53 32 14 20 16
19 50 -23 19 -24 44 -62 56 -85 27 -53 49 -55 98 -8 26 25 40 32 52 26 24 -13
55 -51 77 -95 29 -59 53 -65 109 -28 27 18 54 28 63 25 9 -3 44 -34 77 -69 55
-57 63 -63 88 -56 29 8 48 33 67 85 13 38 30 34 65 -16 16 -23 37 -51 46 -62
9 -11 63 -78 120 -150 57 -71 160 -186 229 -256 167 -169 333 -299 613 -483
59 -39 151 -99 205 -134 145 -94 189 -165 193 -313 5 -192 72 -282 266 -359
59 -23 124 -55 143 -70 68 -53 99 -60 153 -37 l28 12 -26 34 c-28 39 -34 98
-10 107 36 14 64 -5 79 -54 37 -122 60 -141 169 -138 95 3 151 -14 196 -60
l34 -35 28 27 28 26 25 -27 c14 -15 26 -32 26 -37 0 -6 9 -23 21 -39 38 -53
84 -33 93 41 5 45 18 54 46 30 29 -25 27 -25 65 5 51 38 74 95 64 152 -8 45
-47 153 -89 248 -64 144 -89 240 -84 327 1 35 17 108 34 163 37 122 46 196 30
254 -6 23 -9 45 -7 48 3 2 56 -32 118 -76 85 -61 118 -80 133 -75 12 4 22 9
24 13 1 3 11 21 22 39 23 38 48 41 87 9 56 -46 131 -58 195 -32 17 7 21 4 89
-74 19 -21 26 -23 74 -17 l53 6 27 -64 c39 -93 69 -123 136 -140 78 -20 130
-48 194 -106 64 -58 109 -72 199 -64 64 5 67 4 109 -30 70 -57 148 -86 272
-101 28 -3 72 -8 98 -11 27 -3 68 -18 95 -34 47 -29 127 -54 212 -65 25 -3 70
-10 100 -15 30 -6 105 -12 165 -14 61 -3 124 -9 140 -13 54 -15 144 -2 185 27
25 18 27 18 80 0 63 -22 141 -25 206 -9 43 11 48 10 134 -34 49 -25 98 -44
107 -42 10 2 24 4 31 4 7 1 36 25 65 55 l52 53 90 -39 c103 -46 120 -50 157
-42 21 4 31 16 44 52 34 92 58 100 156 51 100 -51 158 -41 188 32 14 34 14 34
71 13 24 -8 61 -17 81 -20 36 -5 41 -2 103 60 64 65 78 72 140 66 11 -1 74
-28 140 -61 139 -69 194 -80 226 -46 11 12 30 39 40 60 23 44 21 45 148 -15
94 -43 144 -57 192 -53 35 3 49 18 49 56 0 45 18 51 74 22 74 -38 170 -72 244
-87 l64 -14 -7 36 c-14 75 -13 77 27 76 41 -1 115 -24 191 -58 122 -56 230
-97 247 -94 24 4 7 24 -202 236 -83 84 -148 155 -145 159 8 7 131 -52 202 -98
102 -66 190 -124 195 -129 8 -9 110 -78 225 -155 121 -79 225 -138 232 -131
13 13 -250 299 -383 416 -105 93 -214 183 -334 275 -36 28 -71 56 -78 62 -7 7
-41 34 -75 60 -63 49 -91 70 -111 88 -6 6 -33 28 -60 50 -27 21 -61 50 -75 63
-14 14 -36 31 -49 40 -48 32 -10 22 60 -16 40 -22 132 -70 203 -107 72 -37
153 -80 180 -95 28 -15 85 -46 128 -69 43 -23 93 -51 110 -61 18 -10 50 -28
71 -40 32 -17 233 -136 311 -183 11 -7 98 -64 195 -127 96 -63 180 -118 187
-123 8 -5 7 6 -3 37 -34 99 -314 364 -606 572 -78 55 -462 307 -572 374 -13 8
-83 53 -155 100 -72 47 -139 90 -148 95 -10 6 -39 25 -65 43 -26 17 -51 32
-57 32 -6 0 -11 9 -11 20 0 25 11 25 58 1 20 -10 91 -39 157 -65 66 -26 134
-54 150 -61 17 -7 120 -49 230 -93 203 -82 423 -174 550 -232 39 -17 86 -39
105 -47 19 -9 120 -58 224 -110 103 -52 190 -93 192 -91 2 2 -12 31 -30 63
-46 84 -201 210 -406 329 -59 34 -461 232 -570 281 -47 21 -117 53 -157 71
-39 18 -202 90 -361 159 -252 110 -291 130 -295 151 -2 13 -2 25 0 27 3 4 333
-79 628 -157 179 -48 559 -143 616 -155 24 -5 91 -19 149 -31 58 -11 116 -23
130 -25 14 -2 70 -11 125 -19 168 -27 215 -29 215 -12 0 8 2 21 5 28 11 29
-399 212 -715 321 -162 56 -630 194 -718 212 -9 2 -106 27 -216 55 -109 28
-206 53 -215 56 -9 2 -34 8 -56 14 -22 6 -56 15 -75 20 -130 32 -445 122 -453
130 -4 4 16 17 44 30 42 18 71 22 145 22 51 0 97 -2 102 -6 5 -3 33 -8 63 -11
29 -4 76 -11 104 -16 163 -31 598 -33 845 -3 56 6 248 34 275 39 11 2 47 9 80
15 243 46 476 155 623 290 39 36 41 40 24 49 -11 6 -28 9 -38 7 -11 -2 -48 -7
-84 -11 -36 -3 -76 -8 -90 -10 -56 -8 -144 -19 -245 -30 -33 -4 -69 -9 -80
-11 -11 -2 -44 -6 -75 -9 -31 -3 -64 -7 -75 -9 -11 -2 -54 -7 -95 -11 -41 -4
-83 -9 -92 -10 -9 -2 -45 -6 -80 -10 -35 -3 -74 -8 -88 -10 -14 -2 -54 -6 -90
-10 -36 -4 -78 -8 -95 -10 -16 -2 -66 -6 -110 -10 -44 -4 -96 -9 -115 -11
-175 -20 -714 -20 -860 1 -14 2 -59 6 -100 10 -41 4 -88 9 -105 11 -16 2 -57
6 -90 9 -33 3 -69 9 -80 12 -11 3 -31 7 -45 8 -38 4 -107 15 -189 31 -65 12
-99 31 -101 55 0 4 69 6 153 6 187 -1 329 10 453 34 28 5 61 12 75 14 55 11
71 15 146 36 316 88 617 258 794 447 91 98 177 226 155 230 -17 4 -28 -2 -146
-67 -97 -54 -342 -174 -445 -218 -203 -87 -395 -155 -770 -273 -80 -26 -292
-75 -385 -91 -114 -19 -487 -16 -597 5 -10 2 -38 7 -63 10 -25 3 -58 9 -75 11
-50 9 -138 25 -170 31 -112 20 -407 102 -630 174 -196 64 -328 103 -395 116
-14 3 -52 11 -85 18 -33 8 -85 17 -115 21 -30 4 -64 9 -75 11 -27 6 -285 6
-310 1 -11 -3 -42 -8 -70 -11 -27 -4 -58 -9 -67 -12 -9 -3 -25 -7 -35 -9 -10
-3 -44 -11 -76 -19 -33 -8 -84 -17 -115 -20 -52 -5 -205 -20 -327 -31 -27 -3
-72 -8 -100 -11 -27 -3 -71 -7 -96 -9 -25 -2 -68 -6 -95 -9 -48 -6 -291 -33
-369 -41 -22 -2 -83 -10 -135 -16 -52 -6 -106 -13 -120 -14 -33 -4 -111 -13
-185 -22 -135 -16 -357 -8 -468 17 -23 5 -53 11 -67 14 -77 15 -267 94 -343
143 -23 15 -49 32 -58 38 -8 5 -31 20 -50 32 -19 12 -39 26 -45 31 -5 5 -21
15 -34 22 -13 7 -29 17 -34 22 -10 8 -63 42 -301 195 -212 136 -391 253 -400
260 -6 4 -60 41 -120 82 -61 41 -168 117 -239 168 -70 52 -149 104 -175 118
-109 55 -239 81 -433 89 -103 4 -107 3 -98 -15 16 -29 59 -46 135 -52 79 -7
155 -31 234 -73 68 -36 200 -164 277 -268 l59 -78 232 -118 c290 -148 360
-194 434 -286 45 -57 84 -184 57 -184 -8 0 -23 -7 -34 -15 -19 -15 -18 -16 9
-36 15 -11 27 -24 27 -29 0 -4 -23 -13 -50 -20 -28 -7 -52 -15 -54 -19 -3 -4
9 -15 25 -25 63 -37 -27 -58 -139 -32 -39 9 -88 16 -109 16 l-38 -1 45 -23
c25 -13 88 -33 140 -46 112 -26 180 -57 159 -71 -8 -5 -33 -14 -55 -20 -69
-18 -106 -58 -113 -121 -1 -3 -22 0 -48 8 -66 20 -66 19 -13 -33 53 -55 107
-130 112 -158 6 -40 -86 -30 -154 17 -34 23 -34 23 -47 -13 l-11 -32 -30 32
c-17 17 -34 31 -38 31 -18 0 -20 -12 -7 -37 16 -31 13 -51 -19 -123 -13 -30
-28 -66 -33 -79 l-9 -24 -17 27 c-10 15 -30 73 -44 129 -27 105 -50 158 -71
165 -16 5 -15 -33 3 -112 15 -66 17 -124 4 -132 -4 -2 -10 5 -14 15 -10 31
-59 67 -117 87 -29 9 -62 23 -73 30 -28 20 -32 18 -46 -20 -13 -37 -44 -52
-64 -32 -7 6 -27 43 -46 81 l-33 68 -45 -53 c-104 -121 -97 -116 -115 -101 -9
8 -26 36 -38 63 -11 26 -23 48 -25 48 -3 0 -12 -9 -22 -21 l-16 -21 -28 26
c-59 55 -95 75 -166 92 -78 18 -116 45 -127 90 -15 60 3 187 39 279 32 81 36
97 32 165 -2 41 -7 87 -10 103 -3 15 -7 37 -9 50 -39 222 -77 367 -126 472 -5
11 -14 31 -20 45 -6 14 -17 36 -25 50 -13 23 -13 25 4 28 10 2 40 -9 67 -24
39 -22 46 -24 34 -8 -26 34 -81 78 -134 109 -46 27 -59 30 -141 29 -64 0 -99
-4 -121 -16 -29 -16 -30 -16 -29 0 9 100 138 223 250 239 17 2 35 6 41 8 20 6
105 -15 129 -32 21 -16 46 -58 51 -88 11 -58 16 -72 35 -87 12 -10 32 -18 46
-18 22 0 23 3 17 38 -4 20 -12 51 -19 67 -14 34 -69 92 -97 101 -10 3 -18 9
-18 13 0 4 -51 31 -112 61 -268 126 -337 161 -398 202 -36 24 -114 74 -175
112 -60 38 -261 169 -445 291 -442 292 -527 340 -1080 608 -107 51 -269 130
-360 174 -182 89 -218 100 -365 106 -55 3 -122 13 -150 22 -27 9 -159 71 -291
136 -133 65 -244 119 -248 119 -12 0 -237 139 -286 177 -179 139 -242 195
-425 381 -67 67 -124 122 -127 122 -3 0 -4 -17 -1 -37 6 -49 52 -148 92 -197
17 -21 31 -43 31 -47 0 -10 -199 109 -220 131 -3 3 -43 30 -90 60 -47 30 -87
57 -90 60 -8 8 -119 80 -124 80 -3 0 -24 13 -48 29 -50 33 -136 81 -145 81 -4
0 9 -16 28 -36z"/>
<path d="M5638 9333 c-4 -7 -4 -13 1 -53 1 -8 17 -32 36 -54 19 -21 35 -39 35
-41 0 -2 -9 -22 -20 -46 -11 -24 -20 -54 -20 -67 0 -19 4 -22 21 -17 36 12 88
8 112 -8 13 -8 55 -47 95 -86 40 -39 77 -71 83 -71 12 0 -32 83 -92 174 -22
32 -39 60 -39 62 0 13 -146 170 -182 195 -15 11 -28 16 -30 12z"/>
<path d="M5340 9241 c0 -5 7 -14 16 -22 13 -10 17 -10 24 1 5 8 6 18 4 22 -7
11 -44 10 -44 -1z"/>
<path d="M5416 9173 c30 -47 47 -64 89 -85 l40 -21 -20 24 c-48 59 -72 82 -98
95 l-28 15 17 -28z"/>
<path d="M6555 6242 c-141 -102 -284 -181 -353 -197 -18 -3 -34 -11 -37 -16
-8 -12 117 -136 180 -180 101 -70 289 -139 381 -139 24 0 24 0 25 -107 0 -128
5 -198 19 -272 29 -159 137 -268 298 -302 28 -6 52 -13 53 -17 0 -4 2 -14 4
-22 2 -8 5 -26 8 -40 60 -281 172 -426 344 -445 l60 -7 6 -62 c13 -131 86
-272 201 -386 103 -102 158 -113 245 -48 l24 18 22 -47 c12 -27 42 -73 66
-103 64 -79 99 -128 99 -136 0 -13 51 -74 76 -91 40 -26 116 -26 149 1 23 19
29 32 34 87 9 99 40 90 140 -44 45 -61 75 -89 115 -110 38 -18 79 -6 94 28 15
32 24 31 40 -3 50 -115 195 -161 270 -86 19 20 52 96 52 122 0 22 4 20 50 -21
57 -49 164 -105 265 -138 119 -40 169 -5 182 126 3 30 10 55 14 55 5 0 44 -12
86 -26 101 -34 189 -42 230 -21 49 26 66 74 65 190 -1 92 9 144 26 133 8 -5
123 -19 172 -20 71 -3 124 26 164 88 14 22 19 49 19 110 0 101 -12 160 -50
244 -25 57 -17 61 110 61 121 -1 187 13 256 52 90 50 83 142 -21 278 -45 59
-67 105 -56 117 5 5 91 21 150 28 62 8 121 26 163 51 52 30 92 72 79 84 -5 5
-79 41 -164 81 -167 77 -799 392 -1285 639 -165 84 -293 146 -285 139 58 -50
243 -177 386 -265 111 -69 372 -208 722 -384 301 -152 418 -215 405 -220 -54
-20 -335 -33 -418 -20 l-49 8 24 -19 c14 -11 37 -30 52 -42 43 -35 181 -247
181 -279 1 -58 -94 -111 -197 -108 -134 2 -230 20 -396 71 -116 36 -119 25
-12 -60 171 -137 248 -231 277 -339 15 -59 2 -105 -38 -135 -24 -18 -42 -21
-110 -20 -117 2 -227 47 -327 134 -158 138 -310 289 -391 390 -56 70 -71 83
-95 78 -11 -2 3 -29 51 -98 251 -359 287 -472 172 -529 -37 -18 -43 -19 -76
-5 -42 18 -53 27 -188 164 -95 96 -103 102 -88 65 9 -22 18 -47 20 -56 5 -23
39 -89 101 -195 78 -133 91 -175 85 -282 -1 -22 -4 -23 -47 -17 -148 20 -265
107 -439 328 -64 81 -81 93 -70 50 4 -16 9 -39 11 -53 5 -25 19 -69 35 -105
27 -62 28 -72 8 -112 -22 -44 -62 -71 -102 -67 -41 4 -124 53 -164 97 -46 52
-78 124 -108 243 -13 53 -31 111 -39 128 -15 32 -53 73 -60 65 -2 -2 -13 -33
-25 -69 -11 -36 -33 -78 -47 -94 -23 -24 -32 -28 -65 -23 -56 7 -122 62 -251
209 -28 32 -54 55 -59 53 -4 -3 -15 -29 -23 -58 -18 -63 -46 -83 -103 -74 -54
9 -78 41 -171 227 -74 148 -83 174 -89 237 l-6 71 -56 -5 c-62 -6 -103 9 -140
48 -24 26 -64 107 -85 169 -16 49 -37 102 -65 165 -10 22 -21 50 -25 61 -11
35 -37 52 -100 63 -98 18 -149 73 -177 188 -7 26 -13 118 -13 203 l-2 155 -24
-4 c-37 -7 -139 -6 -186 2 -77 12 -201 66 -329 144 -11 7 -31 17 -45 23 l-25
11 41 37 c109 98 183 163 226 198 44 37 53 54 32 61 -5 1 -45 -24 -89 -55z"/>
</g>
</svg>
